<svg xmlns="http://www.w3.org/2000/svg" xmlns:xlink="http://www.w3.org/1999/xlink" width="500" zoomAndPan="magnify" viewBox="0 0 375 131.249995" height="175" preserveAspectRatio="xMidYMid meet" version="1.2"><defs/><g id="0ebc406b63"><g style="fill:#000000;fill-opacity:1;"><g transform="translate(0.709236, 104.562933)"><path style="stroke:none" d="M 40.109375 0.578125 C 33.453125 0.578125 27.453125 -0.890625 22.109375 -3.828125 C 16.773438 -6.773438 12.585938 -10.851562 9.546875 -16.0625 C 6.503906 -21.28125 4.984375 -27.117188 4.984375 -33.578125 C 4.984375 -40.046875 6.503906 -45.882812 9.546875 -51.09375 C 12.585938 -56.3125 16.789062 -60.390625 22.15625 -63.328125 C 27.53125 -66.273438 33.546875 -67.75 40.203125 -67.75 C 45.191406 -67.75 49.796875 -66.914062 54.015625 -65.25 C 58.242188 -63.582031 61.828125 -61.148438 64.765625 -57.953125 L 60.265625 -53.453125 C 55.015625 -58.753906 48.390625 -61.40625 40.390625 -61.40625 C 35.085938 -61.40625 30.257812 -60.191406 25.90625 -57.765625 C 21.550781 -55.335938 18.144531 -52.007812 15.6875 -47.78125 C 13.226562 -43.5625 12 -38.828125 12 -33.578125 C 12 -28.335938 13.226562 -23.601562 15.6875 -19.375 C 18.144531 -15.15625 21.550781 -11.828125 25.90625 -9.390625 C 30.257812 -6.960938 35.085938 -5.75 40.390625 -5.75 C 48.453125 -5.75 55.078125 -8.4375 60.265625 -13.8125 L 64.765625 -9.3125 C 61.828125 -6.113281 58.226562 -3.664062 53.96875 -1.96875 C 49.71875 -0.269531 45.097656 0.578125 40.109375 0.578125 Z M 40.109375 0.578125 "/></g></g><g style="fill:#000000;fill-opacity:1;"><g transform="translate(60.189484, 104.562933)"><path style="stroke:none" d="M 56.796875 0 L 41.453125 -21.59375 C 39.722656 -21.394531 37.929688 -21.296875 36.078125 -21.296875 L 18.046875 -21.296875 L 18.046875 0 L 10.9375 0 L 10.9375 -67.171875 L 36.078125 -67.171875 C 44.648438 -67.171875 51.363281 -65.125 56.21875 -61.03125 C 61.082031 -56.9375 63.515625 -51.304688 63.515625 -44.140625 C 63.515625 -38.890625 62.1875 -34.457031 59.53125 -30.84375 C 56.882812 -27.226562 53.097656 -24.625 48.171875 -23.03125 L 64.578125 0 Z M 35.890625 -27.34375 C 42.535156 -27.34375 47.617188 -28.8125 51.140625 -31.75 C 54.660156 -34.695312 56.421875 -38.828125 56.421875 -44.140625 C 56.421875 -49.578125 54.660156 -53.75 51.140625 -56.65625 C 47.617188 -59.570312 42.535156 -61.03125 35.890625 -61.03125 L 18.046875 -61.03125 L 18.046875 -27.34375 Z M 35.890625 -27.34375 "/></g></g><g style="fill:#000000;fill-opacity:1;"><g transform="translate(120.053498, 104.562933)"><path style="stroke:none" d="M 67.078125 -67.171875 L 67.078125 0 L 60.0625 0 L 60.0625 -31 L 18.046875 -31 L 18.046875 0 L 10.9375 0 L 10.9375 -67.171875 L 18.046875 -67.171875 L 18.046875 -37.234375 L 60.0625 -37.234375 L 60.0625 -67.171875 Z M 67.078125 -67.171875 "/></g></g><path style="fill:none;stroke-width:1;stroke-linecap:butt;stroke-linejoin:miter;stroke:#000000;stroke-opacity:1;stroke-miterlimit:4;" d="M -0.00180713 0.498404 L 110.668678 0.498404 " transform="matrix(0,0.745739,-0.745739,0,205.79746,28.048223)"/><g style="fill:#000000;fill-opacity:1;"><g transform="translate(216.432406, 56.103473)"><path style="stroke:none" d="M 10.1875 0.140625 C 8.5 0.140625 6.972656 -0.226562 5.609375 -0.96875 C 4.253906 -1.71875 3.191406 -2.753906 2.421875 -4.078125 C 1.648438 -5.398438 1.265625 -6.882812 1.265625 -8.53125 C 1.265625 -10.164062 1.648438 -11.644531 2.421875 -12.96875 C 3.191406 -14.289062 4.257812 -15.328125 5.625 -16.078125 C 6.988281 -16.828125 8.515625 -17.203125 10.203125 -17.203125 C 11.472656 -17.203125 12.644531 -16.988281 13.71875 -16.5625 C 14.789062 -16.144531 15.695312 -15.53125 16.4375 -14.71875 L 15.296875 -13.5625 C 13.960938 -14.914062 12.28125 -15.59375 10.25 -15.59375 C 8.90625 -15.59375 7.679688 -15.28125 6.578125 -14.65625 C 5.472656 -14.039062 4.609375 -13.195312 3.984375 -12.125 C 3.359375 -11.050781 3.046875 -9.851562 3.046875 -8.53125 C 3.046875 -7.195312 3.359375 -5.992188 3.984375 -4.921875 C 4.609375 -3.847656 5.472656 -3.003906 6.578125 -2.390625 C 7.679688 -1.773438 8.90625 -1.46875 10.25 -1.46875 C 12.300781 -1.46875 13.984375 -2.144531 15.296875 -3.5 L 16.4375 -2.359375 C 15.695312 -1.546875 14.785156 -0.925781 13.703125 -0.5 C 12.617188 -0.0703125 11.445312 0.140625 10.1875 0.140625 Z M 10.1875 0.140625 "/></g></g><g style="fill:#000000;fill-opacity:1;"><g transform="translate(235.180832, 56.103473)"><path style="stroke:none" d="M 6.890625 -12.90625 C 8.566406 -12.90625 9.847656 -12.488281 10.734375 -11.65625 C 11.628906 -10.820312 12.078125 -9.582031 12.078125 -7.9375 L 12.078125 0 L 10.421875 0 L 10.421875 -2 C 10.035156 -1.332031 9.460938 -0.8125 8.703125 -0.4375 C 7.953125 -0.0625 7.054688 0.125 6.015625 0.125 C 4.585938 0.125 3.453125 -0.210938 2.609375 -0.890625 C 1.765625 -1.578125 1.34375 -2.484375 1.34375 -3.609375 C 1.34375 -4.691406 1.734375 -5.566406 2.515625 -6.234375 C 3.304688 -6.898438 4.5625 -7.234375 6.28125 -7.234375 L 10.359375 -7.234375 L 10.359375 -8.015625 C 10.359375 -9.117188 10.046875 -9.957031 9.421875 -10.53125 C 8.804688 -11.113281 7.90625 -11.40625 6.71875 -11.40625 C 5.90625 -11.40625 5.125 -11.269531 4.375 -11 C 3.632812 -10.726562 2.992188 -10.359375 2.453125 -9.890625 L 1.6875 -11.1875 C 2.332031 -11.738281 3.109375 -12.160156 4.015625 -12.453125 C 4.929688 -12.753906 5.890625 -12.90625 6.890625 -12.90625 Z M 6.28125 -1.25 C 7.257812 -1.25 8.097656 -1.46875 8.796875 -1.90625 C 9.492188 -2.351562 10.015625 -3 10.359375 -3.84375 L 10.359375 -5.9375 L 6.328125 -5.9375 C 4.140625 -5.9375 3.046875 -5.175781 3.046875 -3.65625 C 3.046875 -2.90625 3.328125 -2.316406 3.890625 -1.890625 C 4.460938 -1.460938 5.257812 -1.25 6.28125 -1.25 Z M 6.28125 -1.25 "/></g></g><g style="fill:#000000;fill-opacity:1;"><g transform="translate(250.983192, 56.103473)"><path style="stroke:none" d="M 4.0625 -10.296875 C 4.46875 -11.160156 5.070312 -11.8125 5.875 -12.25 C 6.6875 -12.6875 7.679688 -12.90625 8.859375 -12.90625 L 8.859375 -11.234375 L 8.453125 -11.25 C 7.109375 -11.25 6.050781 -10.832031 5.28125 -10 C 4.519531 -9.175781 4.140625 -8.019531 4.140625 -6.53125 L 4.140625 0 L 2.40625 0 L 2.40625 -12.8125 L 4.0625 -12.8125 Z M 4.0625 -10.296875 "/></g></g><g style="fill:#000000;fill-opacity:1;"><g transform="translate(261.988921, 56.103473)"><path style="stroke:none" d="M 2.40625 -18.078125 L 4.140625 -18.078125 L 4.140625 0 L 2.40625 0 Z M 2.40625 -18.078125 "/></g></g><g style="fill:#000000;fill-opacity:1;"><g transform="translate(269.975529, 56.103473)"><path style="stroke:none" d="M 7.65625 0.125 C 6.414062 0.125 5.300781 -0.15625 4.3125 -0.71875 C 3.320312 -1.28125 2.539062 -2.054688 1.96875 -3.046875 C 1.40625 -4.035156 1.125 -5.15625 1.125 -6.40625 C 1.125 -7.65625 1.40625 -8.773438 1.96875 -9.765625 C 2.539062 -10.753906 3.320312 -11.523438 4.3125 -12.078125 C 5.300781 -12.628906 6.414062 -12.90625 7.65625 -12.90625 C 8.882812 -12.90625 9.992188 -12.628906 10.984375 -12.078125 C 11.972656 -11.523438 12.75 -10.753906 13.3125 -9.765625 C 13.875 -8.773438 14.15625 -7.65625 14.15625 -6.40625 C 14.15625 -5.15625 13.875 -4.035156 13.3125 -3.046875 C 12.75 -2.054688 11.972656 -1.28125 10.984375 -0.71875 C 9.992188 -0.15625 8.882812 0.125 7.65625 0.125 Z M 7.65625 -1.40625 C 8.5625 -1.40625 9.375 -1.613281 10.09375 -2.03125 C 10.820312 -2.445312 11.390625 -3.035156 11.796875 -3.796875 C 12.203125 -4.554688 12.40625 -5.425781 12.40625 -6.40625 C 12.40625 -7.382812 12.203125 -8.253906 11.796875 -9.015625 C 11.390625 -9.773438 10.820312 -10.363281 10.09375 -10.78125 C 9.375 -11.195312 8.5625 -11.40625 7.65625 -11.40625 C 6.738281 -11.40625 5.914062 -11.195312 5.1875 -10.78125 C 4.46875 -10.363281 3.898438 -9.773438 3.484375 -9.015625 C 3.078125 -8.253906 2.875 -7.382812 2.875 -6.40625 C 2.875 -5.425781 3.078125 -4.554688 3.484375 -3.796875 C 3.898438 -3.035156 4.46875 -2.445312 5.1875 -2.03125 C 5.914062 -1.613281 6.738281 -1.40625 7.65625 -1.40625 Z M 7.65625 -1.40625 "/></g></g><g style="fill:#000000;fill-opacity:1;"><g transform="translate(286.678758, 56.103473)"><path style="stroke:none" d="M 5.84375 0.125 C 4.800781 0.125 3.804688 -0.0234375 2.859375 -0.328125 C 1.910156 -0.628906 1.171875 -1.007812 0.640625 -1.46875 L 1.40625 -2.828125 C 1.945312 -2.398438 2.625 -2.050781 3.4375 -1.78125 C 4.25 -1.519531 5.09375 -1.390625 5.96875 -1.390625 C 7.132812 -1.390625 8 -1.570312 8.5625 -1.9375 C 9.125 -2.300781 9.40625 -2.816406 9.40625 -3.484375 C 9.40625 -3.953125 9.25 -4.320312 8.9375 -4.59375 C 8.632812 -4.863281 8.242188 -5.066406 7.765625 -5.203125 C 7.296875 -5.335938 6.671875 -5.472656 5.890625 -5.609375 C 4.859375 -5.796875 4.023438 -5.988281 3.390625 -6.1875 C 2.753906 -6.394531 2.210938 -6.742188 1.765625 -7.234375 C 1.316406 -7.722656 1.09375 -8.394531 1.09375 -9.25 C 1.09375 -10.320312 1.539062 -11.195312 2.4375 -11.875 C 3.332031 -12.5625 4.570312 -12.90625 6.15625 -12.90625 C 6.988281 -12.90625 7.816406 -12.796875 8.640625 -12.578125 C 9.472656 -12.359375 10.15625 -12.070312 10.6875 -11.71875 L 9.9375 -10.328125 C 8.882812 -11.054688 7.625 -11.421875 6.15625 -11.421875 C 5.050781 -11.421875 4.21875 -11.222656 3.65625 -10.828125 C 3.101562 -10.441406 2.828125 -9.9375 2.828125 -9.3125 C 2.828125 -8.820312 2.984375 -8.429688 3.296875 -8.140625 C 3.617188 -7.847656 4.015625 -7.628906 4.484375 -7.484375 C 4.953125 -7.347656 5.601562 -7.207031 6.4375 -7.0625 C 7.457031 -6.863281 8.273438 -6.664062 8.890625 -6.46875 C 9.503906 -6.28125 10.03125 -5.953125 10.46875 -5.484375 C 10.90625 -5.015625 11.125 -4.363281 11.125 -3.53125 C 11.125 -2.40625 10.65625 -1.515625 9.71875 -0.859375 C 8.789062 -0.203125 7.5 0.125 5.84375 0.125 Z M 5.84375 0.125 "/></g></g><g style="fill:#000000;fill-opacity:1;"><g transform="translate(216.432406, 77.746309)"><path style="stroke:none" d="M 14.421875 0 L 10.515625 -5.484375 C 10.078125 -5.429688 9.625 -5.40625 9.15625 -5.40625 L 4.578125 -5.40625 L 4.578125 0 L 2.78125 0 L 2.78125 -17.046875 L 9.15625 -17.046875 C 11.332031 -17.046875 13.035156 -16.523438 14.265625 -15.484375 C 15.503906 -14.453125 16.125 -13.023438 16.125 -11.203125 C 16.125 -9.867188 15.785156 -8.742188 15.109375 -7.828125 C 14.441406 -6.910156 13.484375 -6.25 12.234375 -5.84375 L 16.390625 0 Z M 9.109375 -6.9375 C 10.796875 -6.9375 12.085938 -7.3125 12.984375 -8.0625 C 13.878906 -8.8125 14.328125 -9.859375 14.328125 -11.203125 C 14.328125 -12.585938 13.878906 -13.648438 12.984375 -14.390625 C 12.085938 -15.128906 10.796875 -15.5 9.109375 -15.5 L 4.578125 -15.5 L 4.578125 -6.9375 Z M 9.109375 -6.9375 "/></g></g><g style="fill:#000000;fill-opacity:1;"><g transform="translate(235.35129, 77.746309)"><path style="stroke:none" d="M 6.890625 -12.90625 C 8.566406 -12.90625 9.847656 -12.488281 10.734375 -11.65625 C 11.628906 -10.820312 12.078125 -9.582031 12.078125 -7.9375 L 12.078125 0 L 10.421875 0 L 10.421875 -2 C 10.035156 -1.332031 9.460938 -0.8125 8.703125 -0.4375 C 7.953125 -0.0625 7.054688 0.125 6.015625 0.125 C 4.585938 0.125 3.453125 -0.210938 2.609375 -0.890625 C 1.765625 -1.578125 1.34375 -2.484375 1.34375 -3.609375 C 1.34375 -4.691406 1.734375 -5.566406 2.515625 -6.234375 C 3.304688 -6.898438 4.5625 -7.234375 6.28125 -7.234375 L 10.359375 -7.234375 L 10.359375 -8.015625 C 10.359375 -9.117188 10.046875 -9.957031 9.421875 -10.53125 C 8.804688 -11.113281 7.90625 -11.40625 6.71875 -11.40625 C 5.90625 -11.40625 5.125 -11.269531 4.375 -11 C 3.632812 -10.726562 2.992188 -10.359375 2.453125 -9.890625 L 1.6875 -11.1875 C 2.332031 -11.738281 3.109375 -12.160156 4.015625 -12.453125 C 4.929688 -12.753906 5.890625 -12.90625 6.890625 -12.90625 Z M 6.28125 -1.25 C 7.257812 -1.25 8.097656 -1.46875 8.796875 -1.90625 C 9.492188 -2.351562 10.015625 -3 10.359375 -3.84375 L 10.359375 -5.9375 L 6.328125 -5.9375 C 4.140625 -5.9375 3.046875 -5.175781 3.046875 -3.65625 C 3.046875 -2.90625 3.328125 -2.316406 3.890625 -1.890625 C 4.460938 -1.460938 5.257812 -1.25 6.28125 -1.25 Z M 6.28125 -1.25 "/></g></g><g style="fill:#000000;fill-opacity:1;"><g transform="translate(251.153649, 77.746309)"><path style="stroke:none" d="M 18.390625 -12.90625 C 19.992188 -12.90625 21.253906 -12.441406 22.171875 -11.515625 C 23.097656 -10.597656 23.5625 -9.234375 23.5625 -7.421875 L 23.5625 0 L 21.828125 0 L 21.828125 -7.265625 C 21.828125 -8.585938 21.503906 -9.597656 20.859375 -10.296875 C 20.222656 -10.992188 19.316406 -11.34375 18.140625 -11.34375 C 16.816406 -11.34375 15.769531 -10.929688 15 -10.109375 C 14.238281 -9.296875 13.859375 -8.164062 13.859375 -6.71875 L 13.859375 0 L 12.125 0 L 12.125 -7.265625 C 12.125 -8.585938 11.800781 -9.597656 11.15625 -10.296875 C 10.519531 -10.992188 9.609375 -11.34375 8.421875 -11.34375 C 7.109375 -11.34375 6.066406 -10.929688 5.296875 -10.109375 C 4.523438 -9.296875 4.140625 -8.164062 4.140625 -6.71875 L 4.140625 0 L 2.40625 0 L 2.40625 -12.8125 L 4.0625 -12.8125 L 4.0625 -10.46875 C 4.519531 -11.25 5.15625 -11.847656 5.96875 -12.265625 C 6.78125 -12.691406 7.710938 -12.90625 8.765625 -12.90625 C 9.835938 -12.90625 10.765625 -12.675781 11.546875 -12.21875 C 12.335938 -11.769531 12.929688 -11.097656 13.328125 -10.203125 C 13.796875 -11.046875 14.472656 -11.707031 15.359375 -12.1875 C 16.242188 -12.664062 17.253906 -12.90625 18.390625 -12.90625 Z M 18.390625 -12.90625 "/></g></g><g style="fill:#000000;fill-opacity:1;"><g transform="translate(278.423975, 77.746309)"><path style="stroke:none" d="M 2.40625 -12.8125 L 4.140625 -12.8125 L 4.140625 0 L 2.40625 0 Z M 5.046875 -17.84375 L 7.359375 -17.84375 L 3.40625 -14.8125 L 1.703125 -14.8125 Z M 5.046875 -17.84375 "/></g></g><g style="fill:#000000;fill-opacity:1;"><g transform="translate(286.410583, 77.746309)"><path style="stroke:none" d="M 4.0625 -10.296875 C 4.46875 -11.160156 5.070312 -11.8125 5.875 -12.25 C 6.6875 -12.6875 7.679688 -12.90625 8.859375 -12.90625 L 8.859375 -11.234375 L 8.453125 -11.25 C 7.109375 -11.25 6.050781 -10.832031 5.28125 -10 C 4.519531 -9.175781 4.140625 -8.019531 4.140625 -6.53125 L 4.140625 0 L 2.40625 0 L 2.40625 -12.8125 L 4.0625 -12.8125 Z M 4.0625 -10.296875 "/></g></g><g style="fill:#000000;fill-opacity:1;"><g transform="translate(297.294539, 77.746309)"><path style="stroke:none" d="M 13.5625 -5.875 L 2.84375 -5.875 C 2.945312 -4.539062 3.457031 -3.460938 4.375 -2.640625 C 5.300781 -1.816406 6.472656 -1.40625 7.890625 -1.40625 C 8.691406 -1.40625 9.421875 -1.546875 10.078125 -1.828125 C 10.742188 -2.117188 11.320312 -2.539062 11.8125 -3.09375 L 12.78125 -1.96875 C 12.21875 -1.289062 11.507812 -0.769531 10.65625 -0.40625 C 9.800781 -0.0507812 8.863281 0.125 7.84375 0.125 C 6.53125 0.125 5.363281 -0.15625 4.34375 -0.71875 C 3.332031 -1.28125 2.539062 -2.054688 1.96875 -3.046875 C 1.40625 -4.035156 1.125 -5.15625 1.125 -6.40625 C 1.125 -7.65625 1.394531 -8.773438 1.9375 -9.765625 C 2.476562 -10.753906 3.222656 -11.523438 4.171875 -12.078125 C 5.128906 -12.628906 6.195312 -12.90625 7.375 -12.90625 C 8.5625 -12.90625 9.625 -12.628906 10.5625 -12.078125 C 11.507812 -11.523438 12.25 -10.757812 12.78125 -9.78125 C 13.320312 -8.800781 13.59375 -7.675781 13.59375 -6.40625 Z M 7.375 -11.421875 C 6.144531 -11.421875 5.109375 -11.023438 4.265625 -10.234375 C 3.429688 -9.453125 2.957031 -8.425781 2.84375 -7.15625 L 11.9375 -7.15625 C 11.820312 -8.425781 11.34375 -9.453125 10.5 -10.234375 C 9.664062 -11.023438 8.625 -11.421875 7.375 -11.421875 Z M 7.375 -11.421875 "/></g></g><g style="fill:#000000;fill-opacity:1;"><g transform="translate(313.315989, 77.746309)"><path style="stroke:none" d="M 11.453125 -1.4375 L 11.453125 0 L 1.015625 0 L 1.015625 -1.140625 L 9.09375 -11.34375 L 1.171875 -11.34375 L 1.171875 -12.8125 L 11.296875 -12.8125 L 11.296875 -11.671875 L 3.234375 -1.4375 Z M 11.453125 -1.4375 "/></g></g><g style="fill:#000000;fill-opacity:1;"><g transform="translate(216.432406, 99.389146)"><path style="stroke:none" d="M 17.03125 -17.046875 L 17.03125 0 L 15.25 0 L 15.25 -7.875 L 4.578125 -7.875 L 4.578125 0 L 2.78125 0 L 2.78125 -17.046875 L 4.578125 -17.046875 L 4.578125 -9.453125 L 15.25 -9.453125 L 15.25 -17.046875 Z M 17.03125 -17.046875 "/></g></g><g style="fill:#000000;fill-opacity:1;"><g transform="translate(237.664385, 99.389146)"><path style="stroke:none" d="M 13.5625 -5.875 L 2.84375 -5.875 C 2.945312 -4.539062 3.457031 -3.460938 4.375 -2.640625 C 5.300781 -1.816406 6.472656 -1.40625 7.890625 -1.40625 C 8.691406 -1.40625 9.421875 -1.546875 10.078125 -1.828125 C 10.742188 -2.117188 11.320312 -2.539062 11.8125 -3.09375 L 12.78125 -1.96875 C 12.21875 -1.289062 11.507812 -0.769531 10.65625 -0.40625 C 9.800781 -0.0507812 8.863281 0.125 7.84375 0.125 C 6.53125 0.125 5.363281 -0.15625 4.34375 -0.71875 C 3.332031 -1.28125 2.539062 -2.054688 1.96875 -3.046875 C 1.40625 -4.035156 1.125 -5.15625 1.125 -6.40625 C 1.125 -7.65625 1.394531 -8.773438 1.9375 -9.765625 C 2.476562 -10.753906 3.222656 -11.523438 4.171875 -12.078125 C 5.128906 -12.628906 6.195312 -12.90625 7.375 -12.90625 C 8.5625 -12.90625 9.625 -12.628906 10.5625 -12.078125 C 11.507812 -11.523438 12.25 -10.757812 12.78125 -9.78125 C 13.320312 -8.800781 13.59375 -7.675781 13.59375 -6.40625 Z M 7.375 -11.421875 C 6.144531 -11.421875 5.109375 -11.023438 4.265625 -10.234375 C 3.429688 -9.453125 2.957031 -8.425781 2.84375 -7.15625 L 11.9375 -7.15625 C 11.820312 -8.425781 11.34375 -9.453125 10.5 -10.234375 C 9.664062 -11.023438 8.625 -11.421875 7.375 -11.421875 Z M 7.375 -11.421875 "/></g></g><g style="fill:#000000;fill-opacity:1;"><g transform="translate(253.807608, 99.389146)"><path style="stroke:none" d="M 4.0625 -10.296875 C 4.46875 -11.160156 5.070312 -11.8125 5.875 -12.25 C 6.6875 -12.6875 7.679688 -12.90625 8.859375 -12.90625 L 8.859375 -11.234375 L 8.453125 -11.25 C 7.109375 -11.25 6.050781 -10.832031 5.28125 -10 C 4.519531 -9.175781 4.140625 -8.019531 4.140625 -6.53125 L 4.140625 0 L 2.40625 0 L 2.40625 -12.8125 L 4.0625 -12.8125 Z M 4.0625 -10.296875 "/></g></g><g style="fill:#000000;fill-opacity:1;"><g transform="translate(264.813337, 99.389146)"><path style="stroke:none" d="M 8.9375 -12.90625 C 10.539062 -12.90625 11.816406 -12.4375 12.765625 -11.5 C 13.722656 -10.570312 14.203125 -9.210938 14.203125 -7.421875 L 14.203125 0 L 12.46875 0 L 12.46875 -7.265625 C 12.46875 -8.585938 12.132812 -9.597656 11.46875 -10.296875 C 10.800781 -10.992188 9.851562 -11.34375 8.625 -11.34375 C 7.238281 -11.34375 6.144531 -10.929688 5.34375 -10.109375 C 4.539062 -9.296875 4.140625 -8.164062 4.140625 -6.71875 L 4.140625 0 L 2.40625 0 L 2.40625 -12.8125 L 4.0625 -12.8125 L 4.0625 -10.453125 C 4.539062 -11.234375 5.195312 -11.835938 6.03125 -12.265625 C 6.863281 -12.691406 7.832031 -12.90625 8.9375 -12.90625 Z M 8.9375 -12.90625 "/></g></g><g style="fill:#000000;fill-opacity:1;"><g transform="translate(282.733982, 99.389146)"><path style="stroke:none" d="M 6.890625 -12.90625 C 8.566406 -12.90625 9.847656 -12.488281 10.734375 -11.65625 C 11.628906 -10.820312 12.078125 -9.582031 12.078125 -7.9375 L 12.078125 0 L 10.421875 0 L 10.421875 -2 C 10.035156 -1.332031 9.460938 -0.8125 8.703125 -0.4375 C 7.953125 -0.0625 7.054688 0.125 6.015625 0.125 C 4.585938 0.125 3.453125 -0.210938 2.609375 -0.890625 C 1.765625 -1.578125 1.34375 -2.484375 1.34375 -3.609375 C 1.34375 -4.691406 1.734375 -5.566406 2.515625 -6.234375 C 3.304688 -6.898438 4.5625 -7.234375 6.28125 -7.234375 L 10.359375 -7.234375 L 10.359375 -8.015625 C 10.359375 -9.117188 10.046875 -9.957031 9.421875 -10.53125 C 8.804688 -11.113281 7.90625 -11.40625 6.71875 -11.40625 C 5.90625 -11.40625 5.125 -11.269531 4.375 -11 C 3.632812 -10.726562 2.992188 -10.359375 2.453125 -9.890625 L 1.6875 -11.1875 C 2.332031 -11.738281 3.109375 -12.160156 4.015625 -12.453125 C 4.929688 -12.753906 5.890625 -12.90625 6.890625 -12.90625 Z M 6.28125 -1.25 C 7.257812 -1.25 8.097656 -1.46875 8.796875 -1.90625 C 9.492188 -2.351562 10.015625 -3 10.359375 -3.84375 L 10.359375 -5.9375 L 6.328125 -5.9375 C 4.140625 -5.9375 3.046875 -5.175781 3.046875 -3.65625 C 3.046875 -2.90625 3.328125 -2.316406 3.890625 -1.890625 C 4.460938 -1.460938 5.257812 -1.25 6.28125 -1.25 Z M 8.703125 -17.84375 L 11.015625 -17.84375 L 7.0625 -14.8125 L 5.359375 -14.8125 Z M 8.703125 -17.84375 "/></g></g><g style="fill:#000000;fill-opacity:1;"><g transform="translate(298.536341, 99.389146)"><path style="stroke:none" d="M 8.9375 -12.90625 C 10.539062 -12.90625 11.816406 -12.4375 12.765625 -11.5 C 13.722656 -10.570312 14.203125 -9.210938 14.203125 -7.421875 L 14.203125 0 L 12.46875 0 L 12.46875 -7.265625 C 12.46875 -8.585938 12.132812 -9.597656 11.46875 -10.296875 C 10.800781 -10.992188 9.851562 -11.34375 8.625 -11.34375 C 7.238281 -11.34375 6.144531 -10.929688 5.34375 -10.109375 C 4.539062 -9.296875 4.140625 -8.164062 4.140625 -6.71875 L 4.140625 0 L 2.40625 0 L 2.40625 -12.8125 L 4.0625 -12.8125 L 4.0625 -10.453125 C 4.539062 -11.234375 5.195312 -11.835938 6.03125 -12.265625 C 6.863281 -12.691406 7.832031 -12.90625 8.9375 -12.90625 Z M 8.9375 -12.90625 "/></g></g><g style="fill:#000000;fill-opacity:1;"><g transform="translate(316.505689, 99.389146)"><path style="stroke:none" d="M 14.109375 -18.078125 L 14.109375 0 L 12.453125 0 L 12.453125 -2.53125 C 11.929688 -1.675781 11.242188 -1.019531 10.390625 -0.5625 C 9.535156 -0.101562 8.570312 0.125 7.5 0.125 C 6.300781 0.125 5.210938 -0.148438 4.234375 -0.703125 C 3.265625 -1.253906 2.503906 -2.023438 1.953125 -3.015625 C 1.398438 -4.003906 1.125 -5.132812 1.125 -6.40625 C 1.125 -7.675781 1.398438 -8.804688 1.953125 -9.796875 C 2.503906 -10.785156 3.265625 -11.550781 4.234375 -12.09375 C 5.210938 -12.632812 6.300781 -12.90625 7.5 -12.90625 C 8.539062 -12.90625 9.476562 -12.691406 10.3125 -12.265625 C 11.15625 -11.835938 11.84375 -11.207031 12.375 -10.375 L 12.375 -18.078125 Z M 7.65625 -1.40625 C 8.539062 -1.40625 9.34375 -1.613281 10.0625 -2.03125 C 10.789062 -2.445312 11.363281 -3.035156 11.78125 -3.796875 C 12.195312 -4.554688 12.40625 -5.425781 12.40625 -6.40625 C 12.40625 -7.382812 12.195312 -8.253906 11.78125 -9.015625 C 11.363281 -9.773438 10.789062 -10.363281 10.0625 -10.78125 C 9.34375 -11.195312 8.539062 -11.40625 7.65625 -11.40625 C 6.738281 -11.40625 5.914062 -11.195312 5.1875 -10.78125 C 4.46875 -10.363281 3.898438 -9.773438 3.484375 -9.015625 C 3.078125 -8.253906 2.875 -7.382812 2.875 -6.40625 C 2.875 -5.425781 3.078125 -4.554688 3.484375 -3.796875 C 3.898438 -3.035156 4.46875 -2.445312 5.1875 -2.03125 C 5.914062 -1.613281 6.738281 -1.40625 7.65625 -1.40625 Z M 7.65625 -1.40625 "/></g></g><g style="fill:#000000;fill-opacity:1;"><g transform="translate(334.450668, 99.389146)"><path style="stroke:none" d="M 13.5625 -5.875 L 2.84375 -5.875 C 2.945312 -4.539062 3.457031 -3.460938 4.375 -2.640625 C 5.300781 -1.816406 6.472656 -1.40625 7.890625 -1.40625 C 8.691406 -1.40625 9.421875 -1.546875 10.078125 -1.828125 C 10.742188 -2.117188 11.320312 -2.539062 11.8125 -3.09375 L 12.78125 -1.96875 C 12.21875 -1.289062 11.507812 -0.769531 10.65625 -0.40625 C 9.800781 -0.0507812 8.863281 0.125 7.84375 0.125 C 6.53125 0.125 5.363281 -0.15625 4.34375 -0.71875 C 3.332031 -1.28125 2.539062 -2.054688 1.96875 -3.046875 C 1.40625 -4.035156 1.125 -5.15625 1.125 -6.40625 C 1.125 -7.65625 1.394531 -8.773438 1.9375 -9.765625 C 2.476562 -10.753906 3.222656 -11.523438 4.171875 -12.078125 C 5.128906 -12.628906 6.195312 -12.90625 7.375 -12.90625 C 8.5625 -12.90625 9.625 -12.628906 10.5625 -12.078125 C 11.507812 -11.523438 12.25 -10.757812 12.78125 -9.78125 C 13.320312 -8.800781 13.59375 -7.675781 13.59375 -6.40625 Z M 7.375 -11.421875 C 6.144531 -11.421875 5.109375 -11.023438 4.265625 -10.234375 C 3.429688 -9.453125 2.957031 -8.425781 2.84375 -7.15625 L 11.9375 -7.15625 C 11.820312 -8.425781 11.34375 -9.453125 10.5 -10.234375 C 9.664062 -11.023438 8.625 -11.421875 7.375 -11.421875 Z M 7.375 -11.421875 "/></g></g><g style="fill:#000000;fill-opacity:1;"><g transform="translate(350.472117, 99.389146)"><path style="stroke:none" d="M 11.453125 -1.4375 L 11.453125 0 L 1.015625 0 L 1.015625 -1.140625 L 9.09375 -11.34375 L 1.171875 -11.34375 L 1.171875 -12.8125 L 11.296875 -12.8125 L 11.296875 -11.671875 L 3.234375 -1.4375 Z M 11.453125 -1.4375 "/></g></g></g></svg>