<svg xmlns="http://www.w3.org/2000/svg" xmlns:xlink="http://www.w3.org/1999/xlink" width="756" zoomAndPan="magnify" viewBox="0 0 567 567.000005" height="756" preserveAspectRatio="xMidYMid meet" version="1.2"><defs><clipPath id="5b064af79c"><path d="M 21 27.828125 L 551 27.828125 L 551 522 L 21 522 Z M 21 27.828125 "/></clipPath></defs><g id="cfb75277d6"><g clip-rule="nonzero" clip-path="url(#5b064af79c)"><path style=" stroke:none;fill-rule:nonzero;fill:#000000;fill-opacity:1;" d="M 286.566406 27.875 C 223.554688 27.875 177.472656 74.042969 177.472656 127.714844 C 177.472656 155.402344 187.613281 179.742188 205.007812 196.429688 C 222.398438 213.117188 246.425781 221.917969 272.335938 221.917969 C 304.71875 221.917969 335.050781 199.691406 335.050781 167.34375 C 335.050781 137.417969 310.414062 112.769531 280.503906 112.769531 C 279.902344 112.761719 279.304688 112.78125 278.707031 112.832031 C 278.105469 112.882812 277.511719 112.964844 276.921875 113.074219 C 276.332031 113.183594 275.746094 113.324219 275.167969 113.492188 C 274.59375 113.660156 274.027344 113.855469 273.46875 114.078125 C 272.910156 114.304688 272.363281 114.554688 271.832031 114.832031 C 271.300781 115.109375 270.78125 115.414062 270.28125 115.746094 C 269.777344 116.074219 269.292969 116.429688 268.824219 116.804688 C 268.355469 117.183594 267.910156 117.582031 267.480469 118.003906 C 267.054688 118.425781 266.648438 118.871094 266.261719 119.332031 C 265.878906 119.792969 265.519531 120.273438 265.183594 120.773438 C 264.847656 121.269531 264.535156 121.785156 264.25 122.3125 C 263.964844 122.84375 263.703125 123.382812 263.472656 123.9375 C 263.242188 124.492188 263.039062 125.058594 262.859375 125.632812 C 262.683594 126.207031 262.539062 126.789062 262.421875 127.378906 C 262.300781 127.96875 262.210938 128.5625 262.152344 129.160156 C 262.09375 129.757812 262.0625 130.359375 262.0625 130.960938 C 262.0625 131.5625 262.09375 132.160156 262.152344 132.757812 C 262.210938 133.359375 262.300781 133.953125 262.421875 134.539062 C 262.539062 135.128906 262.683594 135.710938 262.863281 136.289062 C 263.039062 136.863281 263.242188 137.425781 263.472656 137.980469 C 263.703125 138.535156 263.964844 139.078125 264.25 139.605469 C 264.535156 140.136719 264.847656 140.648438 265.183594 141.148438 C 265.519531 141.644531 265.878906 142.125 266.261719 142.589844 C 266.648438 143.050781 267.054688 143.492188 267.480469 143.914062 C 267.910156 144.335938 268.355469 144.738281 268.824219 145.113281 C 269.292969 145.492188 269.777344 145.847656 270.28125 146.175781 C 270.78125 146.503906 271.300781 146.808594 271.832031 147.085938 C 272.363281 147.367188 272.910156 147.617188 273.46875 147.839844 C 274.027344 148.066406 274.59375 148.261719 275.167969 148.429688 C 275.746094 148.597656 276.332031 148.734375 276.921875 148.847656 C 277.511719 148.957031 278.105469 149.035156 278.707031 149.085938 C 279.304688 149.136719 279.902344 149.160156 280.503906 149.152344 C 290.765625 149.152344 298.6875 157.078125 298.6875 167.34375 C 298.6875 175.1875 288.441406 185.535156 272.335938 185.535156 C 254.5 185.535156 240.183594 179.765625 230.171875 170.160156 C 220.164062 160.558594 213.835938 146.875 213.835938 127.714844 C 213.835938 94.3125 240.484375 64.257812 286.566406 64.257812 C 346.910156 64.257812 383.417969 110.289062 383.417969 167.34375 C 383.417969 185.542969 379.664062 201.671875 373.097656 215.542969 C 372.390625 216.394531 371.765625 217.304688 371.226562 218.269531 C 366.042969 227.25 361.644531 233.511719 357.425781 238.898438 C 338.785156 259.101562 311.597656 270.425781 280.503906 270.425781 C 252.148438 270.425781 240.292969 266.65625 225.53125 262.136719 C 211.996094 257.992188 195.328125 253.320312 169.234375 252.542969 C 168.964844 252.535156 168.699219 252.503906 168.429688 252.496094 C 166.332031 252.441406 164.617188 252.234375 162.390625 252.234375 C 161.09375 252.222656 159.804688 252.351562 158.53125 252.613281 C 158.5 252.613281 158.46875 252.613281 158.4375 252.613281 C 155.074219 252.777344 151.6875 253.070312 148.304688 253.492188 C 130.097656 255.757812 111.71875 261.789062 94.019531 272.011719 C 30.179688 308.886719 0.0820312 388.132812 39.921875 457.171875 C 71.429688 511.765625 134.421875 528.609375 180.882812 501.773438 C 204.84375 487.925781 220.851562 466.964844 226.597656 443.550781 C 232.34375 420.136719 227.957031 394.921875 214.996094 372.46875 C 198.804688 344.40625 164.390625 329.257812 136.398438 345.417969 C 110.484375 360.375 101.46875 394.046875 116.414062 419.960938 C 116.710938 420.476562 117.035156 420.976562 117.382812 421.460938 C 117.726562 421.945312 118.097656 422.410156 118.488281 422.859375 C 118.882812 423.308594 119.296875 423.734375 119.730469 424.144531 C 120.164062 424.550781 120.617188 424.9375 121.089844 425.300781 C 121.5625 425.664062 122.050781 426.003906 122.554688 426.316406 C 123.0625 426.632812 123.582031 426.921875 124.113281 427.1875 C 124.648438 427.449219 125.195312 427.6875 125.75 427.898438 C 126.308594 428.109375 126.875 428.289062 127.449219 428.445312 C 128.023438 428.601562 128.605469 428.726562 129.195312 428.824219 C 129.78125 428.921875 130.371094 428.988281 130.964844 429.027344 C 131.5625 429.066406 132.15625 429.078125 132.75 429.058594 C 133.347656 429.039062 133.9375 428.992188 134.53125 428.914062 C 135.121094 428.835938 135.707031 428.730469 136.285156 428.597656 C 136.867188 428.460938 137.4375 428.300781 138.003906 428.109375 C 138.566406 427.917969 139.121094 427.699219 139.664062 427.453125 C 140.203125 427.207031 140.734375 426.9375 141.25 426.640625 C 141.765625 426.339844 142.265625 426.019531 142.75 425.671875 C 143.234375 425.324219 143.703125 424.957031 144.148438 424.5625 C 144.597656 424.171875 145.023438 423.757812 145.433594 423.324219 C 145.839844 422.886719 146.226562 422.433594 146.589844 421.960938 C 146.953125 421.488281 147.289062 421 147.605469 420.496094 C 147.921875 419.988281 148.210938 419.46875 148.472656 418.933594 C 148.738281 418.402344 148.972656 417.855469 149.183594 417.296875 C 149.394531 416.742188 149.578125 416.175781 149.730469 415.597656 C 149.886719 415.023438 150.011719 414.441406 150.109375 413.855469 C 150.207031 413.265625 150.277344 412.675781 150.316406 412.082031 C 150.355469 411.484375 150.363281 410.890625 150.347656 410.296875 C 150.328125 409.699219 150.277344 409.105469 150.203125 408.515625 C 150.125 407.925781 150.019531 407.339844 149.882812 406.757812 C 149.75 406.179688 149.585938 405.605469 149.394531 405.042969 C 149.203125 404.476562 148.984375 403.921875 148.742188 403.378906 C 148.496094 402.835938 148.222656 402.308594 147.925781 401.792969 C 142.796875 392.898438 145.703125 382.070312 154.578125 376.945312 C 161.375 373.023438 175.4375 376.710938 183.484375 390.660156 C 192.40625 406.117188 194.582031 421.40625 191.273438 434.882812 C 187.96875 448.359375 179.28125 460.6875 162.699219 470.269531 C 133.789062 486.96875 94.449219 478.90625 71.410156 438.980469 C 41.238281 386.695312 62.824219 332.035156 112.203125 303.515625 C 127.957031 294.414062 143.804688 289.605469 159.101562 288.355469 C 160.191406 288.542969 161.285156 288.628906 162.390625 288.617188 C 172.710938 288.617188 180.300781 289.300781 187.0625 290.25 C 213.90625 296.277344 237.339844 314.164062 252.898438 341.128906 C 267.078125 365.703125 269.722656 377.863281 273.191406 392.910156 C 276.65625 407.957031 280.96875 426.175781 296.203125 452.574219 C 296.996094 454.007812 297.964844 455.3125 299.113281 456.484375 C 310.726562 474.261719 326.800781 489.957031 347.503906 501.914062 C 411.351562 538.796875 495.003906 525.261719 534.84375 456.222656 C 566.347656 401.628906 549.410156 338.617188 502.953125 311.78125 C 478.984375 297.9375 452.867188 294.5625 429.726562 301.289062 C 406.585938 308.015625 386.953125 324.433594 373.996094 346.886719 C 357.804688 374.941406 361.855469 412.34375 389.859375 428.511719 C 415.765625 443.484375 449.4375 434.441406 464.386719 408.519531 C 464.683594 408.003906 464.957031 407.472656 465.203125 406.929688 C 465.449219 406.386719 465.667969 405.832031 465.859375 405.269531 C 466.050781 404.703125 466.214844 404.132812 466.347656 403.550781 C 466.484375 402.96875 466.589844 402.382812 466.667969 401.792969 C 466.746094 401.203125 466.796875 400.609375 466.816406 400.011719 C 466.835938 399.417969 466.824219 398.820312 466.785156 398.226562 C 466.746094 397.632812 466.679688 397.039062 466.582031 396.449219 C 466.484375 395.863281 466.359375 395.28125 466.203125 394.703125 C 466.046875 394.128906 465.867188 393.5625 465.65625 393.003906 C 465.445312 392.445312 465.210938 391.898438 464.945312 391.367188 C 464.679688 390.832031 464.390625 390.308594 464.078125 389.804688 C 463.761719 389.296875 463.421875 388.808594 463.058594 388.335938 C 462.695312 387.863281 462.3125 387.410156 461.902344 386.972656 C 461.496094 386.539062 461.070312 386.125 460.621094 385.734375 C 460.171875 385.339844 459.707031 384.96875 459.222656 384.621094 C 458.734375 384.277344 458.234375 383.953125 457.71875 383.65625 C 457.203125 383.359375 456.671875 383.085938 456.128906 382.839844 C 455.585938 382.59375 455.035156 382.378906 454.46875 382.1875 C 453.90625 381.996094 453.332031 381.832031 452.75 381.695312 C 452.171875 381.5625 451.585938 381.457031 450.996094 381.378906 C 450.402344 381.300781 449.808594 381.253906 449.214844 381.234375 C 448.617188 381.214844 448.023438 381.226562 447.429688 381.265625 C 446.835938 381.304688 446.242188 381.375 445.65625 381.472656 C 445.066406 381.570312 444.484375 381.695312 443.910156 381.851562 C 443.335938 382.007812 442.769531 382.191406 442.210938 382.402344 C 441.652344 382.613281 441.109375 382.847656 440.574219 383.113281 C 440.039062 383.378906 439.519531 383.667969 439.015625 383.984375 C 438.507812 384.300781 438.019531 384.640625 437.546875 385.003906 C 437.074219 385.367188 436.621094 385.753906 436.1875 386.160156 C 435.753906 386.570312 435.339844 386.996094 434.949219 387.445312 C 434.554688 387.894531 434.1875 388.363281 433.839844 388.847656 C 433.496094 389.332031 433.171875 389.835938 432.875 390.351562 C 427.75 399.234375 416.921875 402.140625 408.039062 397.007812 C 401.257812 393.089844 397.433594 379.03125 405.484375 365.078125 C 414.40625 349.617188 426.542969 340.097656 439.859375 336.226562 C 453.175781 332.355469 468.183594 333.726562 484.769531 343.308594 C 513.6875 360.011719 526.394531 398.105469 503.355469 438.03125 C 473.183594 490.316406 415.078125 498.945312 365.6875 470.410156 C 349.945312 461.320312 337.882812 450.007812 329.15625 437.390625 C 328.761719 436.34375 328.269531 435.339844 327.6875 434.382812 C 322.5625 425.496094 319.371094 418.613281 316.820312 412.308594 C 308.566406 386.007812 312.316406 356.726562 327.902344 329.714844 C 342.082031 305.144531 351.292969 296.753906 362.585938 286.226562 C 373.878906 275.695312 387.480469 262.859375 402.714844 236.460938 C 403.503906 235.117188 404.113281 233.695312 404.535156 232.195312 C 414.1875 213.195312 419.785156 191.347656 419.785156 167.34375 C 419.785156 93.585938 366.246094 27.875 286.566406 27.875 Z M 286.566406 27.875 "/></g><path style="fill:none;stroke-width:4;stroke-linecap:butt;stroke-linejoin:miter;stroke:#000000;stroke-opacity:1;stroke-miterlimit:4;" d="M 0.00032539 2.000717 L 241.890792 2.000717 " transform="matrix(0.748773,0,0,0.748773,134.644288,280.005823)"/><path style="fill:none;stroke-width:4;stroke-linecap:butt;stroke-linejoin:miter;stroke:#000000;stroke-opacity:1;stroke-miterlimit:4;" d="M -0.0018846 2.001938 L 141.357478 1.998777 " transform="matrix(0.746795,-0.0105669,0.0105669,0.746795,225.183378,283.001037)"/></g></svg>