<svg xmlns="http://www.w3.org/2000/svg" version="1.1" xmlns:xlink="http://www.w3.org/1999/xlink" width="512" height="512"><svg xmlns="http://www.w3.org/2000/svg" xmlns:xlink="http://www.w3.org/1999/xlink" width="512" zoomAndPan="magnify" viewBox="0 0 384 383.999986" height="512" preserveAspectRatio="xMidYMid meet" version="1.2"><defs><clipPath id="SvgjsClipPath1003"><path d="M 192 0 C 85.960938 0 0 85.960938 0 192 C 0 298.039062 85.960938 384 192 384 C 298.039062 384 384 298.039062 384 192 C 384 85.960938 298.039062 0 192 0 Z M 192 0 "></path></clipPath></defs><g id="SvgjsG1002"><g clip-rule="nonzero" clip-path="url(#62dc08e86f)"><rect x="0" width="384" y="0" height="383.999986" style="fill:#1a202c;fill-opacity:1;stroke:none;"></rect></g><g style="fill:#fdfbf7;fill-opacity:1;"><g transform="translate(75.691407, 262.499979)"><path style="stroke:none" d="M 65.546875 -121.96875 C 72.984375 -121.96875 79.09375 -120.867188 83.875 -118.671875 C 88.664062 -116.484375 92.914062 -113.921875 96.625 -110.984375 C 98.882812 -109.296875 100.601562 -109.097656 101.78125 -110.390625 C 102.96875 -111.691406 103.785156 -114.765625 104.234375 -119.609375 L 108.125 -119.609375 C 107.894531 -115.328125 107.722656 -110.085938 107.609375 -103.890625 C 107.492188 -97.703125 107.4375 -89.539062 107.4375 -79.40625 L 103.5625 -79.40625 C 102.882812 -84.46875 102.148438 -88.71875 101.359375 -92.15625 C 100.578125 -95.59375 99.476562 -98.546875 98.0625 -101.015625 C 96.65625 -103.492188 94.710938 -105.863281 92.234375 -108.125 C 89.191406 -111.5 85.5625 -114.003906 81.34375 -115.640625 C 77.125 -117.273438 72.703125 -118.09375 68.078125 -118.09375 C 62.222656 -118.09375 57.125 -116.539062 52.78125 -113.4375 C 48.445312 -110.34375 44.84375 -106.117188 41.96875 -100.765625 C 39.101562 -95.421875 36.96875 -89.195312 35.5625 -82.09375 C 34.15625 -75 33.453125 -67.457031 33.453125 -59.46875 C 33.453125 -51.25 34.210938 -43.617188 35.734375 -36.578125 C 37.253906 -29.535156 39.503906 -23.394531 42.484375 -18.15625 C 45.472656 -12.925781 49.191406 -8.84375 53.640625 -5.90625 C 58.085938 -2.976562 63.238281 -1.515625 69.09375 -1.515625 C 73.257812 -1.515625 77.535156 -2.300781 81.921875 -3.875 C 86.316406 -5.457031 89.925781 -7.882812 92.75 -11.15625 C 96.46875 -14.53125 99 -18.550781 100.34375 -23.21875 C 101.695312 -27.894531 102.769531 -34.117188 103.5625 -41.890625 L 107.4375 -41.890625 C 107.4375 -31.304688 107.492188 -22.773438 107.609375 -16.296875 C 107.722656 -9.828125 107.894531 -4.394531 108.125 0 L 104.234375 0 C 103.785156 -4.84375 103.023438 -7.882812 101.953125 -9.125 C 100.878906 -10.363281 99.101562 -10.191406 96.625 -8.609375 C 92.457031 -5.679688 88.035156 -3.117188 83.359375 -0.921875 C 78.691406 1.265625 72.695312 2.359375 65.375 2.359375 C 53.882812 2.359375 43.800781 -0.0546875 35.125 -4.890625 C 26.457031 -9.734375 19.726562 -16.71875 14.9375 -25.84375 C 10.15625 -34.96875 7.765625 -45.953125 7.765625 -58.796875 C 7.765625 -71.410156 10.242188 -82.445312 15.203125 -91.90625 C 20.160156 -101.363281 26.972656 -108.738281 35.640625 -114.03125 C 44.316406 -119.320312 54.285156 -121.96875 65.546875 -121.96875 Z M 65.546875 -121.96875 "></path></g></g><g style="fill:#fdfbf7;fill-opacity:1;"><g transform="translate(193.939388, 262.499979)"><path style="stroke:none" d="M 6.078125 -119.609375 C 8.898438 -119.492188 12.503906 -119.378906 16.890625 -119.265625 C 21.285156 -119.148438 25.679688 -119.09375 30.078125 -119.09375 C 35.585938 -119.09375 40.820312 -119.148438 45.78125 -119.265625 C 50.738281 -119.378906 54.226562 -119.4375 56.25 -119.4375 C 66.382812 -119.4375 74.742188 -118.222656 81.328125 -115.796875 C 87.921875 -113.378906 92.851562 -109.972656 96.125 -105.578125 C 99.394531 -101.191406 101.03125 -96.015625 101.03125 -90.046875 C 101.03125 -86.328125 100.296875 -82.523438 98.828125 -78.640625 C 97.359375 -74.753906 94.820312 -71.175781 91.21875 -67.90625 C 87.613281 -64.644531 82.6875 -61.972656 76.4375 -59.890625 C 70.1875 -57.804688 62.222656 -56.765625 52.546875 -56.765625 L 36.328125 -56.765625 L 36.328125 -60.140625 L 50.84375 -60.140625 C 57.945312 -60.140625 63.382812 -61.40625 67.15625 -63.9375 C 70.925781 -66.476562 73.457031 -69.859375 74.75 -74.078125 C 76.050781 -78.304688 76.703125 -83.007812 76.703125 -88.1875 C 76.703125 -97.082031 74.953125 -103.976562 71.453125 -108.875 C 67.960938 -113.78125 61.941406 -116.234375 53.390625 -116.234375 C 48.765625 -116.234375 45.75 -115.273438 44.34375 -113.359375 C 42.9375 -111.441406 42.234375 -107.554688 42.234375 -101.703125 L 42.234375 -17.90625 C 42.234375 -13.851562 42.570312 -10.8125 43.25 -8.78125 C 43.925781 -6.757812 45.191406 -5.410156 47.046875 -4.734375 C 48.910156 -4.054688 51.644531 -3.601562 55.25 -3.375 L 55.25 0 C 52.425781 -0.226562 48.816406 -0.367188 44.421875 -0.421875 C 40.035156 -0.472656 35.585938 -0.5 31.078125 -0.5 C 26.015625 -0.5 21.285156 -0.472656 16.890625 -0.421875 C 12.503906 -0.367188 8.898438 -0.226562 6.078125 0 L 6.078125 -3.375 C 9.796875 -3.601562 12.582031 -4.054688 14.4375 -4.734375 C 16.300781 -5.410156 17.539062 -6.757812 18.15625 -8.78125 C 18.78125 -10.8125 19.09375 -13.851562 19.09375 -17.90625 L 19.09375 -101.703125 C 19.09375 -105.867188 18.78125 -108.9375 18.15625 -110.90625 C 17.539062 -112.875 16.300781 -114.222656 14.4375 -114.953125 C 12.582031 -115.691406 9.796875 -116.117188 6.078125 -116.234375 Z M 36.328125 -59.640625 C 41.617188 -59.410156 46.035156 -59.15625 49.578125 -58.875 C 53.128906 -58.59375 56.171875 -58.335938 58.703125 -58.109375 C 61.234375 -57.890625 63.515625 -57.609375 65.546875 -57.265625 C 74.890625 -56.367188 81.785156 -54.203125 86.234375 -50.765625 C 90.691406 -47.328125 93.648438 -42.117188 95.109375 -35.140625 L 99 -17.734375 C 100.007812 -13.117188 101.101562 -9.828125 102.28125 -7.859375 C 103.46875 -5.890625 105.1875 -4.957031 107.4375 -5.0625 C 109.019531 -5.0625 110.375 -5.484375 111.5 -6.328125 C 112.625 -7.179688 113.75 -8.335938 114.875 -9.796875 L 117.25 -7.765625 C 114.425781 -4.273438 111.4375 -1.710938 108.28125 -0.078125 C 105.132812 1.546875 101.140625 2.359375 96.296875 2.359375 C 90.890625 2.359375 86.328125 1.09375 82.609375 -1.4375 C 78.890625 -3.96875 76.359375 -8.78125 75.015625 -15.875 L 71.796875 -32.78125 C 70.898438 -37.507812 69.859375 -41.675781 68.671875 -45.28125 C 67.492188 -48.882812 65.890625 -51.695312 63.859375 -53.71875 C 61.828125 -55.75 58.84375 -56.765625 54.90625 -56.765625 L 36.65625 -56.765625 Z M 36.328125 -59.640625 "></path></g></g></g></svg><style>@media (prefers-color-scheme: light) { :root { filter: none; } }
@media (prefers-color-scheme: dark) { :root { filter: none; } }
</style></svg>